<svg id="Layer_1" data-name="Layer 1" xmlns="http://www.w3.org/2000/svg" viewBox="0 0 31.41 31.41"><defs><style>.cls-1{fill:#fff;}</style></defs><title>icon-instagram</title><path class="cls-1" d="M24.09,5.44A1.88,1.88,0,1,0,26,7.32a1.89,1.89,0,0,0-1.88-1.89" transform="translate(0)"/><path class="cls-1" d="M15.71,20.94a5.24,5.24,0,1,1,5.23-5.24,5.24,5.24,0,0,1-5.23,5.24m0-13.3a8.06,8.06,0,1,0,8.06,8.06,8.07,8.07,0,0,0-8.06-8.06" transform="translate(0)"/><path class="cls-1" d="M28.49,22.05A8.67,8.67,0,0,1,27.95,25a5.2,5.2,0,0,1-3,3,8.7,8.7,0,0,1-2.92.54c-1.66.07-2.15.09-6.35.09s-4.69,0-6.35-.09a8.7,8.7,0,0,1-2.92-.54,4.84,4.84,0,0,1-1.81-1.18A4.84,4.84,0,0,1,3.46,25a8.64,8.64,0,0,1-.54-2.92c-.07-1.66-.09-2.15-.09-6.35s0-4.69.09-6.35a8.63,8.63,0,0,1,.54-2.92A4.84,4.84,0,0,1,4.64,4.64,4.86,4.86,0,0,1,6.44,3.46a8.67,8.67,0,0,1,2.92-.54c1.66-.08,2.15-.09,6.35-.09s4.69,0,6.35.09A8.66,8.66,0,0,1,25,3.46a4.86,4.86,0,0,1,1.81,1.18,4.85,4.85,0,0,1,1.18,1.81,8.67,8.67,0,0,1,.54,2.92c.08,1.66.09,2.15.09,6.35s0,4.69-.09,6.35M31.32,9.23a11.55,11.55,0,0,0-.73-3.81,7.72,7.72,0,0,0-1.81-2.78A7.68,7.68,0,0,0,26,.83,11.5,11.5,0,0,0,22.18.09C20.51,0,20,0,15.71,0s-4.8,0-6.48.09A11.49,11.49,0,0,0,5.42.83,7.68,7.68,0,0,0,2.64,2.64,7.72,7.72,0,0,0,.82,5.42,11.55,11.55,0,0,0,.09,9.23C0,10.91,0,11.44,0,15.71s0,4.8.09,6.47A11.56,11.56,0,0,0,.82,26a7.71,7.71,0,0,0,1.81,2.78,7.71,7.71,0,0,0,2.78,1.81,11.54,11.54,0,0,0,3.81.73c1.68.08,2.21.09,6.48.09s4.8,0,6.48-.09A11.55,11.55,0,0,0,26,30.59,8,8,0,0,0,30.59,26a11.56,11.56,0,0,0,.73-3.81c.08-1.68.09-2.21.09-6.47s0-4.8-.09-6.48" transform="translate(0)"/></svg>