<svg xmlns="http://www.w3.org/2000/svg" viewBox="0 0 481.8 135.3" enable-background="new 0 0 481.8 135.3"><style type="text/css">.st0{fill:#FFFFFF;}</style><path class="st0" d="M0 1.1v15h34.2v48.5h20.1v-48.5h34.2v-15zM174.7 1.1v14.4h-57.6v9.4h56.5v14.5h-56.5v10.4h58.5v14.8h-78.1v-63.5zM185.6 1.1h28.2l22 39.5 22-39.5h27.2v63.5h-19.6v-44l-25 44h-10.7l-25-44v44h-19.1zM349.3 1.1h-54.5v63.5h19.9v-21.2h34.6c22.7 0 29.7-9.4 29.7-20.8v-.9c0-11.5-6.8-20.6-29.7-20.6zm8.9 21.4c0 4.4-3 6.7-9.2 6.7h-34.3v-13.7h34.3c6.4 0 9.2 2.4 9.2 6.7v.3zM433.1 0h-3.7c-40.2 0-44.7 20.1-44.7 31.4v2.6c0 11.2 4.5 31.7 44.7 31.7h3.7c40 0 44.6-20.6 44.6-31.7v-2.6c0-11.3-4.7-31.4-44.6-31.4zm23.8 33.2c0 7.3-4.4 17.1-25.7 17.1-21.5 0-25.7-10-25.7-17.2v-1c0-7.3 3.8-16.6 25.7-16.6 21.5 0 25.7 9.4 25.7 16.6v1.1zM0 82.5h479.3v14.4h-479.3zM1.3 116.3h5.2v14.6h-5.2zM8.8 120v10.9h4.9v-4.9c0-1 0-1.9.9-2.6.5-.4 1-.5 1.6-.5.9 0 2 .4 2.4 1.6.1.3.1.7.1 1.4v5h4.9v-5.8c0-2.2-.1-3.6-1.8-4.6-.9-.5-1.9-.8-3.4-.8-2.2 0-3.5.7-4.7 1.6v-1.3h-4.9zM25.9 116.7c0 .7-.1 3.7-.1 3.7h-1.6v2.8h1.5c0 .9-.1 3.7-.1 5.6 0 1.9 1.9 2.1 3.2 2.1h3.5v-3.1h-.6c-.9 0-1.2-.3-1.2-1v-3.6h1.8v-2.8h-1.8v-3.7h-4.6zM41.3 128.5c-.6 0-2.6-.3-3-2.3h10.9c0-2-.5-3.2-1.5-4.3-1.7-1.8-4.2-2.1-6.5-2.1-2.7 0-4.3.5-5.6 1.4-1.9 1.3-2.2 3.2-2.2 4.3 0 4.5 4.2 5.8 7.8 5.8 4.3 0 6.8-1.5 7.8-3.5l-5.1-.2c-.5.2-1.4.9-2.6.9zm-.1-6c1.8 0 2.5 1 2.8 1.8h-5.6c.6-1.8 2.3-1.8 2.8-1.8zM50.1 120v10.9h4.9v-5c0-1.8 1.5-2 2.6-2 .4 0 1.1.1 1.2.1v-4.3c-2 0-3.3 1.1-3.8 1.9v-1.6h-4.9zM59.9 120v10.9h4.9v-4.9c0-1 0-1.9.9-2.6.5-.4 1-.5 1.6-.5.9 0 2 .4 2.4 1.6.1.3.1.7.1 1.4v5h4.9v-5.8c0-2.2-.1-3.6-1.8-4.6-.9-.5-1.9-.8-3.4-.8-2.2 0-3.5.7-4.7 1.6v-1.3h-4.9zM90.9 129.3v-5.8c0-2.8-1.6-3.9-7.2-3.9-2.1 0-4.2.3-5.3.9-1.1.6-1.7 1.5-1.9 2.9h4.7c.1-.8 1.8-1 2.7-1 .9 0 2.4.1 2.4 1.4v.1h-.1c-7.5 0-10 .8-10 3.8 0 1.7 1.3 3.5 4.8 3.5 2.5 0 4.6-1 5.4-1.4 0 .5.1.6.2 1.1h5.1c-.6-.3-.8-.6-.8-1.6zm-5.1-2.2c-.8.9-2.3 1.2-3.1 1.2-1.3 0-1.7-.6-1.7-1.1 0-.9.9-1.1 2.5-1.2l2.8-.1c-.1.5-.2.9-.5 1.2zM98.1 116.7h-4.7c0 .7-.1 3.7-.1 3.7h-1.6v2.8h1.5c0 .9-.1 3.7-.1 5.6 0 1.9 1.9 2.1 3.2 2.1h3.5v-3.1h-.6c-.9 0-1.2-.3-1.2-1v-3.6h1.8v-2.8h-1.8v-3.7zM101.2 120h4.8v10.9h-4.8v-10.9zm0-3.7h4.9v2.6h-4.9v-2.6zM123.8 125.4c0-2.7-2-5.7-8.2-5.7-3.9 0-8 1.6-8 5.8 0 4.3 4.3 5.7 8.1 5.7 4.5 0 8.1-1.9 8.1-5.8zm-11.2-.1c0-1.3.8-2.7 3-2.7 1.9 0 3.1 1.1 3.1 2.8 0 2.4-2 2.9-3 2.9-1.4 0-3.1-.7-3.1-3zM125.3 120v10.9h4.9v-4.9c0-1 0-1.9.9-2.6.5-.4 1-.5 1.6-.5.9 0 2 .4 2.4 1.6.1.3.1.7.1 1.4v5h4.9v-5.8c0-2.2-.1-3.6-1.8-4.6-.9-.5-1.9-.8-3.4-.8-2.2 0-3.5.7-4.7 1.6v-1.3h-4.9zM156.3 129.3v-5.8c0-2.8-1.6-3.9-7.2-3.9-2.1 0-4.2.3-5.3.9-1.1.6-1.7 1.5-1.9 2.9h4.7c.1-.8 1.8-1 2.7-1 .9 0 2.4.1 2.4 1.4v.1h-.1c-7.5 0-10 .8-10 3.8 0 1.7 1.3 3.5 4.8 3.5 2.5 0 4.6-1 5.4-1.4 0 .5.1.6.2 1.1h5.1c-.6-.3-.8-.6-.8-1.6zm-5.2-2.2c-.8.9-2.3 1.2-3.1 1.2-1.3 0-1.7-.6-1.7-1.1 0-.9.9-1.1 2.5-1.2l2.8-.1c-.1.5-.2.9-.5 1.2zM158.4 116.3h4.9v14.6h-4.9zM189.7 121c0-1.3-.5-2.2-.7-2.6-1.2-1.9-3.1-2-5-2h-10.7v14.6h5.2v-5.3h2.8l3 5.3h5.8l-3.6-5.8c3-.8 3.2-3.3 3.2-4.2zm-5.5.8c-.3.4-.8.5-1.8.5h-3.9v-2.7h4.3c.6 0 1.1.1 1.5.6.2.3.2.6.2.7 0 .3 0 .6-.3.9zM191.1 120v6.8c0 3.2 2.5 4.4 5.1 4.4 3 0 4.4-1.3 4.9-1.7v1.5h4.7v-11h-4.8v5.3c0 2.1-1.3 2.7-2.6 2.7-.4 0-2.4 0-2.4-2.2v-5.8h-4.9zM207.8 120v10.9h4.9v-4.9c0-1 0-1.9.9-2.6.5-.4 1-.5 1.6-.5.9 0 2 .4 2.4 1.6.1.3.1.7.1 1.4v5h4.9v-5.8c0-2.2-.1-3.6-1.8-4.6-.9-.5-1.9-.8-3.4-.8-2.2 0-3.5.7-4.7 1.6v-1.3h-4.9zM237.6 120.5c-.9-.5-1.9-.8-3.4-.8-2.2 0-3.6.7-4.7 1.6v-1.3h-4.9v10.9h4.9v-4.9c0-1 0-1.9.9-2.6.5-.4 1-.5 1.6-.5.9 0 2 .4 2.4 1.6.1.3.1.7.1 1.4v5h4.9v-5.8c0-2.1-.1-3.6-1.8-4.6zM241.4 120h4.8v10.9h-4.8v-10.9zm-.1-3.7h4.9v2.6h-4.9v-2.6zM248.2 120v10.9h4.9v-4.9c0-1 0-1.9.9-2.6.5-.4 1-.5 1.6-.5.9 0 2 .4 2.4 1.6.1.3.1.7.1 1.4v5h4.9v-5.8c0-2.2-.1-3.6-1.8-4.6-.9-.5-1.9-.8-3.4-.8-2.2 0-3.6.7-4.7 1.6v-1.3h-4.9zM274.3 131.3c-.3.7-.9 1.2-2.4 1.2-.7 0-1.4-.1-1.8-.6-.3-.3-.4-.6-.4-1h-4.9c0 .3.1 1 .6 1.7.8 1.4 2.9 2.6 6.5 2.6 3.1 0 4.9-.7 6-1.5 1.5-1.1 1.6-2.8 1.6-3.5v-10.2h-4.9v1c-1-.7-2.2-1.2-4-1.2-1.8 0-3 .5-3.6.9-.8.5-2.4 1.9-2.4 4.4 0 3.4 2.7 4.5 3.8 4.8.9.2 1.6.3 1.9.3 2 0 3.4-.5 4.3-1.1v1.1c-.1.6-.2.8-.3 1.1zm-2.3-4.2c-2.4 0-2.6-1.8-2.6-2.1 0-.8.6-2.1 2.5-2.1 1.5 0 2.5.8 2.5 2 .1 1.5-1.2 2.2-2.4 2.2zM298.7 119.1c1.5 0 2.9.6 3.7 2.1l4.8-.8c-.1-.4-.4-1.4-1.2-2.2-1.2-1.3-3.5-2.4-7.4-2.4-9.3 0-9.8 6.4-9.8 7.9 0 4.3 2.8 6.1 4.2 6.8 1.1.5 2.7 1 5.4 1 2.5 0 5.6-.5 7.5-2.4 1.1-1.1 1.5-2.3 1.7-2.8l-5-.5c-.4 1.3-1.9 2.4-4 2.4-.7 0-2.2 0-3.3-1.5-.4-.5-.9-1.4-.9-3 0-1.2.3-2.4 1.1-3.2 1-1.4 2.6-1.4 3.2-1.4zM318.3 125.2c0 2.1-1.3 2.7-2.6 2.7-.4 0-2.4 0-2.4-2.2v-5.7h-4.9v6.8c0 3.2 2.5 4.4 5.1 4.4 3 0 4.4-1.3 4.9-1.7v1.5h4.7v-11h-4.9v5.2zM325.2 116.3h4.9v14.6h-4.9zM332.5 116.7c0 .7-.1 3.7-.1 3.7h-1.6v2.8h1.5c0 .9-.1 3.7-.1 5.6 0 1.9 1.9 2.1 3.2 2.1h3.5v-3.1h-.6c-.9 0-1.2-.3-1.2-1v-3.6h1.8v-2.8h-1.8v-3.7h-4.6zM340.3 120v6.8c0 3.2 2.5 4.4 5.1 4.4 3 0 4.4-1.3 4.9-1.7v1.5h4.7v-11h-4.9v5.3c0 2.1-1.3 2.7-2.6 2.7-.4 0-2.4 0-2.4-2.2v-5.8h-4.8zM356.7 120v10.9h4.9v-5c0-1.8 1.5-2 2.6-2 .4 0 1.1.1 1.2.1v-4.3c-2 0-3.3 1.1-3.8 1.9v-1.6h-4.9zM380.4 121.8c-1.7-1.8-4.2-2.1-6.5-2.1-2.7 0-4.3.5-5.6 1.4-1.9 1.3-2.2 3.2-2.2 4.3 0 4.5 4.2 5.8 7.8 5.8 4.3 0 6.8-1.5 7.8-3.5l-5.1-.2c-.3.4-1.2 1-2.5 1-.6 0-2.6-.3-3-2.3h10.9c-.1-2-.6-3.3-1.6-4.4zm-9.2 2.4c.6-1.7 2.3-1.8 2.8-1.8 1.8 0 2.5 1 2.8 1.8h-5.6zM398.1 126.6v-10.2h-5.2v9.6c0 .4 0 .8-.4 1.1-.3.4-.8.4-1.3.4h-1.3v3.4h3c1.4 0 3-.1 4.1-1.2 1.1-1 1.1-2.5 1.1-3.1zM416.1 125.4c0-2.7-2-5.7-8.2-5.7-3.9 0-8 1.6-8 5.8 0 4.3 4.3 5.7 8.1 5.7 4.6 0 8.1-1.9 8.1-5.8zm-11.1-.1c0-1.3.8-2.7 3-2.7 1.9 0 3.1 1.1 3.1 2.8 0 2.4-2 2.9-3 2.9-1.5 0-3.1-.7-3.1-3zM417.7 120v6.8c0 3.2 2.5 4.4 5.1 4.4 3 0 4.4-1.3 4.9-1.7v1.5h4.7v-11h-4.9v5.3c0 2.1-1.3 2.7-2.6 2.7-.4 0-2.4 0-2.4-2.2v-5.8h-4.8zM434.1 120v10.9h4.9v-5c0-1.8 1.5-2 2.6-2 .4 0 1.1.1 1.2.1v-4.3c-2 0-3.3 1.1-3.8 1.9v-1.6h-4.9zM443.9 120v10.9h4.9v-4.9c0-1 0-1.9.9-2.6.5-.4 1-.5 1.6-.5.9 0 2 .4 2.4 1.6.1.3.1.7.1 1.4v5h4.9v-5.8c0-2.2-.1-3.6-1.8-4.6-.9-.5-1.9-.8-3.4-.8-2.2 0-3.5.7-4.7 1.6v-1.3h-4.9zM474.9 129.3v-5.8c0-2.8-1.6-3.9-7.2-3.9-2.1 0-4.1.3-5.3.9-1.1.6-1.7 1.5-1.9 2.9h4.7c.1-.8 1.8-1 2.7-1 .9 0 2.4.1 2.4 1.4v.1h-.3c-7.5 0-10 .8-10 3.8 0 1.7 1.3 3.5 4.8 3.5 2.5 0 4.6-1 5.4-1.4 0 .5.1.6.2 1.1h5.1c-.4-.3-.6-.6-.6-1.6zm-5.2-2.2c-.8.9-2.3 1.2-3.1 1.2-1.3 0-1.7-.6-1.7-1.1 0-.9.9-1.1 2.5-1.2l2.8-.1c-.1.5-.2.9-.5 1.2zM477 116.3h4.9v14.6h-4.9z"/></svg>