<svg id="Layer_1" data-name="Layer 1" xmlns="http://www.w3.org/2000/svg" viewBox="0 0 444 94"><defs><style>.cls-1{fill:#fff;}</style></defs><title>tempo-logo-r2</title><polygon class="cls-1" points="0 1.04 0 15.1 31.79 15.1 31.79 60.5 50.43 60.5 50.43 15.1 82.29 15.1 82.29 1.04 0 1.04"/><polygon class="cls-1" points="162.42 1.04 162.42 14.54 108.87 14.54 108.87 23.33 161.39 23.33 161.39 36.92 108.87 36.92 108.87 46.67 163.21 46.67 163.21 60.49 90.63 60.49 90.63 1.04 162.42 1.04"/><polygon class="cls-1" points="172.49 1.04 198.75 1.04 219.13 38.04 239.59 1.04 264.89 1.04 264.89 60.49 246.65 60.49 246.65 19.34 223.41 60.49 213.5 60.49 190.26 19.34 190.26 60.49 172.49 60.49 172.49 1.04"/><path class="cls-1" d="M292.53,40.68V60.49H274V1h50.67C346,1,352.23,9.51,352.23,20.38v.8c0,10.63-6.42,19.5-27.52,19.5Zm0-13.35H324.4c5.79,0,8.56-2.16,8.56-6.23v-.24c0-4.08-2.61-6.32-8.56-6.32H292.53Z"/><path class="cls-1" d="M402.52,0C439.64,0,444,18.78,444,29.41v2.4c0,10.47-4.28,29.72-41.48,29.72h-3.41c-37.36,0-41.56-19.26-41.56-29.72v-2.4c0-10.63,4.2-29.41,41.56-29.41Zm22.13,30c0-6.79-3.89-15.58-23.87-15.58-20.31,0-23.87,8.79-23.87,15.58v1c0,6.79,3.89,16.14,23.87,16.14,19.83,0,23.87-9.11,23.87-16Z"/><rect class="cls-1" y="76.42" width="4.82" height="13.55"/><path class="cls-1" d="M11.46,81.08a6.77,6.77,0,0,1,4.38-1.48,5.7,5.7,0,0,1,3.11.71c1.56.92,1.66,2.29,1.66,4.3V90H16.09V85.32A4.83,4.83,0,0,0,16,84a2.09,2.09,0,0,0-2.17-1.52A2.33,2.33,0,0,0,12.3,83a2.81,2.81,0,0,0-.84,2.46V90H6.93V79.79h4.54Z"/><path class="cls-1" d="M25.52,90c-1.16,0-2.91-.17-2.91-2s.1-4.34.1-5.16H21.27V80.22h1.45s0-2.74.06-3.43H27.1v3.43h1.66v2.63H27.12v3.36c0,.63.29.88,1.11.88h.53V90Z"/><path class="cls-1" d="M34.18,85.51A2.76,2.76,0,0,0,37,87.68a3.14,3.14,0,0,0,2.27-.92l4.69.23c-.91,1.9-3.24,3.26-7.16,3.26-3.33,0-7.24-1.29-7.24-5.43a4.8,4.8,0,0,1,2-4c1.24-.88,2.67-1.31,5.2-1.31,2.16,0,4.44.35,6,2a5.41,5.41,0,0,1,1.43,4Zm5.3-1.77a2.45,2.45,0,0,0-2.57-1.63,2.51,2.51,0,0,0-2.57,1.63Z"/><path class="cls-1" d="M49.63,79.79v1.61a4,4,0,0,1,3.49-1.81v4A10.31,10.31,0,0,0,52,83.54c-1,0-2.44.15-2.44,1.82V90H45.13V79.79Z"/><path class="cls-1" d="M58.72,81.08A6.77,6.77,0,0,1,63.1,79.6a5.7,5.7,0,0,1,3.11.71c1.56.92,1.66,2.29,1.66,4.3V90H63.35V85.32a4.87,4.87,0,0,0-.11-1.3,2.09,2.09,0,0,0-2.17-1.52,2.33,2.33,0,0,0-1.5.48,2.81,2.81,0,0,0-.84,2.46V90H54.19V79.79h4.54Z"/><path class="cls-1" d="M78.72,90a4.22,4.22,0,0,1-.17-1,11.84,11.84,0,0,1-5,1.27c-3.27,0-4.44-1.65-4.44-3.22,0-2.8,2.38-3.55,9.26-3.55h.11v-.12c0-1.19-1.33-1.33-2.17-1.33s-2.33.13-2.46.92H69.52a3.42,3.42,0,0,1,1.77-2.71,11.61,11.61,0,0,1,4.86-.81c5.24,0,6.69,1.08,6.69,3.67v5.38A1.61,1.61,0,0,0,83.39,90Zm-2.8-4.53c-1.45.08-2.27.31-2.27,1.11,0,.42.38,1,1.56,1a4.22,4.22,0,0,0,2.84-1.13,2.13,2.13,0,0,0,.47-1.13Z"/><path class="cls-1" d="M87.89,90C86.73,90,85,89.8,85,88s.1-4.34.1-5.16H83.64V80.22h1.45s0-2.74.06-3.43h4.33v3.43h1.66v2.63H89.49v3.36c0,.63.29.88,1.11.88h.53V90Z"/><path class="cls-1" d="M92.32,76.42H96.8V78.8H92.32Zm0,3.38H96.8V90H92.34Z"/><path class="cls-1" d="M105.6,79.52c5.73,0,7.56,2.8,7.56,5.34,0,3.59-3.29,5.38-7.47,5.38-3.54,0-7.47-1.34-7.47-5.34s3.73-5.38,7.37-5.38m.06,2.67a2.53,2.53,0,0,0-2.78,2.55,2.62,2.62,0,0,0,2.92,2.75,2.57,2.57,0,0,0,2.74-2.67c0-1.63-1.09-2.63-2.88-2.63"/><path class="cls-1" d="M119.11,81.08a6.77,6.77,0,0,1,4.38-1.48,5.7,5.7,0,0,1,3.11.71c1.56.92,1.66,2.29,1.66,4.3V90h-4.51V85.32a4.83,4.83,0,0,0-.12-1.3,2.09,2.09,0,0,0-2.17-1.52,2.33,2.33,0,0,0-1.51.48,2.81,2.81,0,0,0-.84,2.46V90h-4.54V79.79h4.54Z"/><path class="cls-1" d="M139.11,90a4.06,4.06,0,0,1-.17-1,11.84,11.84,0,0,1-5,1.27c-3.27,0-4.44-1.65-4.44-3.22,0-2.8,2.38-3.55,9.26-3.55h.11v-.12c0-1.19-1.33-1.33-2.17-1.33s-2.33.13-2.46.92h-4.33a3.43,3.43,0,0,1,1.77-2.71,11.64,11.64,0,0,1,4.86-.81c5.24,0,6.69,1.08,6.69,3.67v5.38a1.61,1.61,0,0,0,.55,1.48Zm-2.8-4.53c-1.45.08-2.26.31-2.26,1.11,0,.42.38,1,1.56,1a4.22,4.22,0,0,0,2.84-1.13,2.16,2.16,0,0,0,.48-1.13Z"/><rect class="cls-1" x="145.15" y="76.42" width="4.51" height="13.55"/><path class="cls-1" d="M169,90,166.26,85H163.7V90h-4.84V76.42h9.91c1.81,0,3.54.13,4.63,1.86a4.45,4.45,0,0,1,.69,2.44A3.68,3.68,0,0,1,171,84.55L174.35,90Zm-5.33-8h3.62c.91,0,1.39-.12,1.69-.48a1.18,1.18,0,0,0,.26-.77,1.21,1.21,0,0,0-.21-.69,1.52,1.52,0,0,0-1.37-.56h-4Z"/><path class="cls-1" d="M184.6,90V88.59a6,6,0,0,1-4.48,1.61c-2.42,0-4.75-1.13-4.75-4.13V79.8h4.52v5.34a2,2,0,0,0,2.23,2.09,2.21,2.21,0,0,0,2.36-2.54V79.8H189V90Z"/><path class="cls-1" d="M195.38,81.08a6.77,6.77,0,0,1,4.38-1.48,5.7,5.7,0,0,1,3.11.71c1.56.92,1.66,2.29,1.66,4.3V90H200V85.32a4.87,4.87,0,0,0-.11-1.3,2.09,2.09,0,0,0-2.17-1.52,2.33,2.33,0,0,0-1.5.48,2.81,2.81,0,0,0-.84,2.46V90h-4.54V79.79h4.54Z"/><path class="cls-1" d="M210.87,81.08a6.77,6.77,0,0,1,4.38-1.48,5.7,5.7,0,0,1,3.11.71c1.56.92,1.66,2.29,1.66,4.3V90H215.5V85.32a4.87,4.87,0,0,0-.11-1.3,2.09,2.09,0,0,0-2.17-1.52,2.33,2.33,0,0,0-1.5.48,2.81,2.81,0,0,0-.84,2.46V90h-4.54V79.79h4.54Z"/><path class="cls-1" d="M221.8,76.42h4.48V78.8H221.8Zm0,3.38h4.46V90h-4.46Z"/><path class="cls-1" d="M232.71,81.08a6.77,6.77,0,0,1,4.38-1.48,5.69,5.69,0,0,1,3.11.71c1.56.92,1.66,2.29,1.66,4.3V90h-4.52V85.32a4.87,4.87,0,0,0-.11-1.3A2.09,2.09,0,0,0,235,82.5a2.33,2.33,0,0,0-1.5.48,2.81,2.81,0,0,0-.84,2.46V90h-4.54V79.79h4.54Z"/><path class="cls-1" d="M256.87,89.34a3.93,3.93,0,0,1-1.47,3.23c-1,.79-2.65,1.44-5.53,1.44-3.32,0-5.2-1.19-6-2.46a4.16,4.16,0,0,1-.54-1.61h4.55a1.29,1.29,0,0,0,.38.92,2.24,2.24,0,0,0,1.69.56c1.39,0,2-.46,2.25-1.13a2.33,2.33,0,0,0,.13-1V88.26a7,7,0,0,1-4,1,6.54,6.54,0,0,1-1.79-.25,4.57,4.57,0,0,1-3.53-4.49,4.72,4.72,0,0,1,2.23-4.13,6.53,6.53,0,0,1,3.32-.82,6.06,6.06,0,0,1,3.71,1.11V79.8h4.5ZM250,82.54a2,2,0,0,0-2.32,1.94c0,.25.17,1.92,2.38,1.92a2.07,2.07,0,0,0,2.28-2c0-1.09-.91-1.88-2.34-1.88"/><path class="cls-1" d="M278.13,80.91a3.51,3.51,0,0,0-3.37-2,4.3,4.3,0,0,0-3.12,1.23,4.41,4.41,0,0,0-1,3,4.33,4.33,0,0,0,.87,2.76,4.11,4.11,0,0,0,6.78-.84l4.59.48a6.36,6.36,0,0,1-1.53,2.65c-1.73,1.77-4.54,2.21-6.88,2.21a11,11,0,0,1-5-1,6.58,6.58,0,0,1-3.9-6.27c0-1.42.44-7.35,9-7.35,3.66,0,5.73,1,6.86,2.21a5.35,5.35,0,0,1,1.14,2.07Z"/><path class="cls-1" d="M293.05,90V88.59a6,6,0,0,1-4.48,1.61c-2.42,0-4.75-1.13-4.75-4.13V79.8h4.52v5.34a2,2,0,0,0,2.23,2.09,2.21,2.21,0,0,0,2.36-2.54V79.8h4.5V90Z"/><rect class="cls-1" x="299.28" y="76.42" width="4.52" height="13.55"/><path class="cls-1" d="M308.75,90c-1.16,0-2.91-.17-2.91-2s.1-4.34.1-5.16H304.5V80.22H306s0-2.74.06-3.43h4.33v3.43H312v2.63h-1.64v3.36c0,.63.29.88,1.11.88H312V90Z"/><path class="cls-1" d="M322.44,90V88.59A6,6,0,0,1,318,90.2c-2.42,0-4.75-1.13-4.75-4.13V79.8h4.52v5.34A2,2,0,0,0,320,87.23a2.21,2.21,0,0,0,2.36-2.54V79.8h4.49V90Z"/><path class="cls-1" d="M332.86,79.79v1.61a4,4,0,0,1,3.48-1.81v4a10.23,10.23,0,0,0-1.07-.07c-1,0-2.44.15-2.44,1.82V90h-4.48V79.79Z"/><path class="cls-1" d="M341.63,85.51a2.76,2.76,0,0,0,2.8,2.17,3.14,3.14,0,0,0,2.27-.92l4.69.23c-.91,1.9-3.24,3.26-7.16,3.26-3.33,0-7.24-1.29-7.24-5.43a4.8,4.8,0,0,1,2-4c1.24-.88,2.66-1.31,5.2-1.31,2.15,0,4.44.35,6,2a5.42,5.42,0,0,1,1.43,4Zm5.29-1.77a2.44,2.44,0,0,0-2.57-1.63,2.51,2.51,0,0,0-2.57,1.63Z"/><path class="cls-1" d="M366.64,76.42v9.5a4,4,0,0,1-1.07,3A5.13,5.13,0,0,1,361.79,90H359V86.76h1.24a1.58,1.58,0,0,0,1.2-.34,1.4,1.4,0,0,0,.32-1.06V76.42Z"/><path class="cls-1" d="M375.71,79.52c5.74,0,7.56,2.8,7.56,5.34,0,3.59-3.3,5.38-7.47,5.38-3.55,0-7.47-1.34-7.47-5.34s3.74-5.38,7.37-5.38m.06,2.67A2.52,2.52,0,0,0,373,84.75a2.61,2.61,0,0,0,2.91,2.75,2.57,2.57,0,0,0,2.74-2.67c0-1.63-1.09-2.63-2.88-2.63"/><path class="cls-1" d="M393.93,90V88.59a6,6,0,0,1-4.48,1.61c-2.42,0-4.75-1.13-4.75-4.13V79.8h4.52v5.34a2,2,0,0,0,2.23,2.09,2.21,2.21,0,0,0,2.36-2.54V79.8h4.49V90Z"/><path class="cls-1" d="M404.35,79.79v1.61a4,4,0,0,1,3.48-1.81v4a10.23,10.23,0,0,0-1.07-.07c-1,0-2.44.15-2.44,1.82V90h-4.48V79.79Z"/><path class="cls-1" d="M413.44,81.08a6.77,6.77,0,0,1,4.38-1.48,5.68,5.68,0,0,1,3.11.71c1.56.92,1.66,2.29,1.66,4.3V90h-4.52V85.32A5.06,5.06,0,0,0,418,84a2.09,2.09,0,0,0-2.18-1.52,2.33,2.33,0,0,0-1.5.48,2.81,2.81,0,0,0-.84,2.46V90h-4.54V79.79h4.54Z"/><path class="cls-1" d="M433.44,90a4.59,4.59,0,0,1-.17-1,11.81,11.81,0,0,1-5,1.27c-3.27,0-4.44-1.65-4.44-3.22,0-2.8,2.38-3.55,9.26-3.55h.11v-.12c0-1.19-1.33-1.33-2.17-1.33s-2.33.13-2.46.92h-4.33A3.42,3.42,0,0,1,426,80.26a11.6,11.6,0,0,1,4.86-.81c5.24,0,6.69,1.08,6.69,3.67v5.38a1.61,1.61,0,0,0,.55,1.48Zm-2.8-4.53c-1.45.08-2.27.31-2.27,1.11,0,.42.38,1,1.56,1a4.22,4.22,0,0,0,2.84-1.13,2.13,2.13,0,0,0,.47-1.13Z"/><rect class="cls-1" x="439.48" y="76.42" width="4.52" height="13.55"/></svg>